<svg version="1.1" id="Layer_1" xmlns="http://www.w3.org/2000/svg" xmlns:xlink="http://www.w3.org/1999/xlink" x="0px" y="0px"
	 width="100%" viewBox="0 0 500 494" enable-background="new 0 0 500 494" xml:space="preserve">
<path fill="none" opacity="1.000000" stroke="none" 
	d="
M501.000000,177.000000 
	C501.000000,283.333313 501.000000,389.166626 501.000000,494.999939 
	C334.333405,494.999969 167.666794,494.999969 1.000146,495.000000 
	C1.000098,330.333435 1.000098,165.666870 1.000049,1.000235 
	C167.666519,1.000156 334.333038,1.000156 500.999786,1.000078 
	C501.000000,59.500000 501.000000,118.000000 501.000000,177.000000 
M486.001770,239.509949 
	C485.668518,234.092987 485.613251,228.641281 484.941132,223.266693 
	C483.733337,213.608521 482.703278,203.876465 480.622284,194.389511 
	C475.715424,172.020081 467.398254,150.890320 456.397400,130.768280 
	C447.890411,115.207886 437.914581,100.647865 425.917542,87.704147 
	C416.735321,77.797348 406.446381,68.878448 396.311188,59.902397 
	C383.668945,48.705978 369.224548,39.976162 354.065643,32.833904 
	C340.926849,26.643425 327.264343,21.098661 313.283112,17.285900 
	C297.596680,13.008115 281.398621,9.883959 265.224365,8.338571 
	C251.465530,7.023968 237.393463,8.209377 223.518570,9.151711 
	C213.677231,9.820102 203.827805,11.430167 194.167633,13.490424 
	C172.238358,18.167366 151.534698,26.305944 131.834106,37.008804 
	C114.654480,46.342075 98.644905,57.378723 84.642555,71.022736 
	C75.908340,79.533424 67.781776,88.695389 59.720409,97.862236 
	C48.568085,110.543907 39.931942,125.033119 32.663879,140.119034 
	C26.567675,152.772568 21.703331,166.110519 17.347952,179.488693 
	C11.972414,196.000427 8.983786,213.179596 8.187275,230.502640 
	C7.572402,243.875351 8.223912,257.356934 9.145549,270.732697 
	C9.812764,280.415955 11.297964,290.125122 13.378522,299.612183 
	C18.284338,321.982056 26.603481,343.110931 37.603642,363.233337 
	C46.110165,378.794159 56.087528,393.352997 68.083923,406.297119 
	C77.265709,416.204285 87.554832,425.123077 97.690239,434.098877 
	C110.332726,445.294861 124.776917,454.025085 139.935776,461.167328 
	C153.074570,467.357788 166.737442,472.901733 180.718735,476.714294 
	C196.405243,480.991913 212.603287,484.116089 228.777573,485.661438 
	C242.536407,486.976013 256.608490,485.790710 270.483368,484.848206 
	C280.324615,484.179718 290.173798,482.568481 299.834076,480.508728 
	C321.763763,475.832886 342.467102,467.693146 362.167633,456.990631 
	C379.347260,447.657623 395.356659,436.620392 409.358795,422.976044 
	C418.092834,414.465179 426.217316,405.301483 434.281403,396.136902 
	C445.438141,383.457672 454.063263,368.961548 461.336365,353.879181 
	C467.437012,341.228180 472.481812,327.934479 476.617188,314.501465 
	C482.457825,295.529114 485.921478,275.991364 485.998810,256.005035 
	C486.018799,250.838928 486.001801,245.672684 486.001770,239.509949 
z"/>
<path fill="#FFFEFD" opacity="1.000000" stroke="none" 
	d="
M486.001770,240.008240 
	C486.001801,245.672684 486.018799,250.838928 485.998810,256.005035 
	C485.921478,275.991364 482.457825,295.529114 476.617188,314.501465 
	C472.481812,327.934479 467.437012,341.228180 461.336365,353.879181 
	C454.063263,368.961548 445.438141,383.457672 434.281403,396.136902 
	C426.217316,405.301483 418.092834,414.465179 409.358795,422.976044 
	C395.356659,436.620392 379.347260,447.657623 362.167633,456.990631 
	C342.467102,467.693146 321.763763,475.832886 299.834076,480.508728 
	C290.173798,482.568481 280.324615,484.179718 270.483368,484.848206 
	C256.608490,485.790710 242.536407,486.976013 228.777573,485.661438 
	C212.603287,484.116089 196.405243,480.991913 180.718735,476.714294 
	C166.737442,472.901733 153.074570,467.357788 139.935776,461.167328 
	C124.776917,454.025085 110.332726,445.294861 97.690239,434.098877 
	C87.554832,425.123077 77.265709,416.204285 68.083923,406.297119 
	C56.087528,393.352997 46.110165,378.794159 37.603642,363.233337 
	C26.603481,343.110931 18.284338,321.982056 13.378522,299.612183 
	C11.297964,290.125122 9.812764,280.415955 9.145549,270.732697 
	C8.223912,257.356934 7.572402,243.875351 8.187275,230.502640 
	C8.983786,213.179596 11.972414,196.000427 17.347952,179.488693 
	C21.703331,166.110519 26.567675,152.772568 32.663879,140.119034 
	C39.931942,125.033119 48.568085,110.543907 59.720409,97.862236 
	C67.781776,88.695389 75.908340,79.533424 84.642555,71.022736 
	C98.644905,57.378723 114.654480,46.342075 131.834106,37.008804 
	C151.534698,26.305944 172.238358,18.167366 194.167633,13.490424 
	C203.827805,11.430167 213.677231,9.820102 223.518570,9.151711 
	C237.393463,8.209377 251.465530,7.023968 265.224365,8.338571 
	C281.398621,9.883959 297.596680,13.008115 313.283112,17.285900 
	C327.264343,21.098661 340.926849,26.643425 354.065643,32.833904 
	C369.224548,39.976162 383.668945,48.705978 396.311188,59.902397 
	C406.446381,68.878448 416.735321,77.797348 425.917542,87.704147 
	C437.914581,100.647865 447.890411,115.207886 456.397400,130.768280 
	C467.398254,150.890320 475.715424,172.020081 480.622284,194.389511 
	C482.703278,203.876465 483.733337,213.608521 484.941132,223.266693 
	C485.613251,228.641281 485.668518,234.092987 486.001770,240.008240 
M151.143448,413.760895 
	C142.481384,416.110840 133.819336,418.460785 125.157280,420.810730 
	C124.864548,420.267975 124.571815,419.725250 124.279091,419.182495 
	C126.464012,413.101410 128.581406,406.995026 130.851105,400.945740 
	C133.641769,393.507904 133.696365,393.528900 127.828552,388.430725 
	C125.942406,386.791962 123.873726,385.316559 122.216362,383.471924 
	C119.578346,380.535828 117.082832,380.757751 113.850891,382.608795 
	C106.938438,386.567810 99.820930,390.168762 92.467636,394.086761 
	C89.739403,390.997772 87.265121,388.196320 84.654953,385.240997 
	C89.445236,378.208649 93.808510,371.516785 98.492653,365.057648 
	C100.571373,362.191193 100.918098,359.893372 98.594154,357.043213 
	C96.391045,354.341248 94.410629,351.421753 92.629959,348.421265 
	C90.804253,345.344879 88.579636,344.527649 85.116547,345.528381 
	C79.209290,347.235413 73.109657,348.294983 67.241158,350.112061 
	C62.551769,351.564056 60.165016,350.287720 58.057041,345.818054 
	C56.291664,342.074860 56.564274,339.839813 59.759052,337.416626 
	C62.403015,335.411163 64.687088,332.938293 67.206238,330.759979 
	C77.631592,321.745178 77.641113,321.757751 73.104446,308.850739 
	C72.939255,308.380768 72.813568,307.894012 72.706749,307.406921 
	C71.948647,303.949432 69.958420,302.606445 66.293381,302.684021 
	C59.808174,302.821259 53.300713,302.130463 46.824001,302.368744 
	C42.388573,302.531921 41.011623,300.652405 39.995495,296.660431 
	C38.910316,292.397217 39.381706,289.853149 43.761162,288.225830 
	C46.699482,287.134003 49.362804,285.313293 52.175144,283.869293 
	C65.618591,276.966736 65.521942,276.985779 63.565109,261.840912 
	C63.127644,258.455200 61.616314,256.835480 58.469975,256.103851 
	C53.773308,255.011734 49.106079,253.783875 44.452358,252.518036 
	C34.237778,249.739594 34.241638,249.714859 35.042843,239.262650 
	C35.066669,238.951828 35.292896,238.656525 35.666664,237.798950 
	C42.941360,236.206497 50.541656,234.432495 58.192944,232.915710 
	C61.862411,232.188263 64.257935,230.869827 64.415550,226.583191 
	C64.542831,223.121109 65.375237,219.674271 66.024384,216.245193 
	C66.632133,213.034775 65.647446,210.940933 62.621742,209.372604 
	C56.861065,206.386673 51.385754,202.842438 45.584946,199.944366 
	C41.618534,197.962769 41.322918,195.475388 42.443195,191.557129 
	C50.183964,164.483124 62.439468,139.687210 80.097023,117.759132 
	C116.584297,72.447289 163.709030,45.967739 221.573883,38.964817 
	C229.286087,38.031467 237.068283,37.676498 244.854889,37.050720 
	C244.854889,34.518955 244.854889,32.315784 244.854889,29.877258 
	C243.473267,29.877258 242.492172,29.860163 241.511795,29.879723 
	C202.009781,30.667864 165.212006,41.077698 131.662598,61.922421 
	C81.251175,93.243759 48.659977,137.866608 33.601254,195.321838 
	C32.566349,199.270447 33.361694,201.566269 36.878822,203.499771 
	C42.856972,206.786194 48.619003,210.464798 54.584381,213.775864 
	C56.975357,215.102966 58.779144,216.307495 57.778942,219.468384 
	C56.883644,222.297791 57.425972,225.515076 52.824806,226.225922 
	C45.784348,227.313644 38.926910,229.537964 31.937344,231.023712 
	C28.504847,231.753342 27.205008,233.663666 27.218199,236.959137 
	C27.236208,241.457764 27.295578,245.965088 27.050255,250.453003 
	C26.863031,253.878021 28.300428,255.731293 31.496656,256.623596 
	C38.542759,258.590729 45.480560,261.049408 52.623966,262.527283 
	C57.250015,263.484375 55.728504,266.835968 56.516998,269.369537 
	C57.279881,271.820862 56.507351,273.233063 54.056721,274.435242 
	C47.336262,277.732056 40.838093,281.479248 34.153797,284.853760 
	C31.259283,286.315033 30.390310,288.354095 31.105106,291.355255 
	C32.145706,295.724365 33.187843,300.094116 34.139782,304.483002 
	C34.918060,308.071289 36.842159,309.885254 40.721172,309.846985 
	C47.716820,309.777985 54.719852,310.191895 61.710701,310.024384 
	C64.801338,309.950317 66.142471,311.070374 66.928528,313.891083 
	C67.721001,316.734802 69.311058,319.114929 65.980263,321.798370 
	C60.413452,326.283295 55.412498,331.463104 49.990467,336.138275 
	C47.190334,338.552704 46.905846,340.860291 48.722847,343.966980 
	C50.904697,347.697510 52.914879,351.546692 54.723610,355.471588 
	C56.268349,358.823700 58.654545,359.659485 62.024513,358.883942 
	C67.698196,357.578217 73.399178,356.391113 79.072708,355.084747 
	C87.609818,353.119019 87.612785,353.098083 91.506607,361.419067 
	C89.071465,364.999084 86.593910,368.551086 84.208641,372.164062 
	C74.534088,386.818146 74.631508,386.740997 86.920807,399.458038 
	C89.776382,402.412994 92.280319,402.741913 95.703911,400.882324 
	C101.844925,397.546722 108.173248,394.551361 114.264694,391.131317 
	C116.786087,389.715729 118.513168,390.024994 120.311043,392.042938 
	C122.046722,393.991180 125.093300,394.866852 123.452728,398.849640 
	C120.670769,405.603333 118.676178,412.677582 116.205963,419.565186 
	C115.003693,422.917419 115.841789,425.095703 118.806259,427.158112 
	C165.820068,459.866302 217.800827,473.082550 274.533905,465.616638 
	C320.234589,459.602600 360.207458,440.603027 393.844055,408.870209 
	C398.750244,404.241699 402.987518,399.682159 410.246948,404.631012 
	C411.150146,405.246704 413.741058,404.630951 414.605255,403.704559 
	C415.444641,402.804779 415.374756,400.722870 415.143250,399.248138 
	C414.891632,397.645325 414.056885,396.115082 413.366760,394.603241 
	C409.682556,386.532593 405.964081,378.477570 402.149872,370.183197 
	C410.909454,371.438904 419.259216,372.816528 427.660126,373.716949 
	C429.842865,373.950867 432.821045,373.313629 434.212860,371.886108 
	C435.029816,371.048187 433.716553,367.742676 432.858398,365.765472 
	C431.884552,363.521729 430.348785,361.521912 429.581787,360.271240 
	C431.953644,358.371063 434.718109,357.154205 435.909546,355.047638 
	C447.890900,333.863953 456.063324,311.236023 459.968750,287.212708 
	C460.839478,281.856598 462.493103,278.863800 468.126007,278.135254 
	C470.005707,277.892151 471.636139,275.721741 473.380524,274.432373 
	C472.074768,272.693756 471.129181,270.355988 469.402283,269.317871 
	C460.885559,264.197968 452.161835,259.422333 443.479248,254.507141 
	C451.160126,250.395508 458.853027,246.442703 466.348450,242.145477 
	C468.157715,241.108185 470.465118,238.908340 470.432587,237.285400 
	C470.402588,235.788864 467.715363,234.049332 465.876740,232.960144 
	C463.571808,231.594727 460.938660,230.783386 459.793793,230.300674 
	C460.644287,226.951660 462.052246,224.284195 461.814606,221.772415 
	C461.236572,215.662811 460.116333,209.577545 458.817322,203.568344 
	C455.369965,187.621201 450.885223,171.996353 443.554718,157.070129 
	C441.247070,158.150467 439.181915,159.117279 436.922180,160.175186 
	C437.544830,161.731934 437.998169,162.950226 438.513763,164.141525 
	C445.421448,180.101974 450.090973,196.718094 452.995819,213.840042 
	C454.391205,222.064972 454.273163,221.988052 447.082764,226.237274 
	C445.721405,227.041794 443.967773,229.021484 444.159943,230.161469 
	C444.413727,231.667160 446.173157,233.343719 447.704498,234.119186 
	C450.706543,235.639450 453.998383,236.587433 458.579651,238.298691 
	C449.707794,242.519608 442.162689,245.963867 434.775421,249.718613 
	C432.741028,250.752655 431.177673,252.713531 429.398193,254.249130 
	C431.194366,255.947739 432.731598,258.126373 434.832672,259.259705 
	C442.816345,263.565948 450.982300,267.534332 457.855499,271.009796 
	C456.218842,274.221741 454.318481,276.477386 453.913879,278.975311 
	C450.215057,301.812103 443.632721,323.688568 433.034058,344.306946 
	C429.647430,350.895233 429.713318,350.786285 422.215851,349.577606 
	C420.513672,349.303192 417.514740,349.795288 417.053284,350.813812 
	C416.367950,352.326508 416.977173,354.837982 417.817963,356.537140 
	C419.220245,359.371033 421.241943,361.898468 423.002838,364.554901 
	C422.739105,364.932312 422.475372,365.309692 422.211639,365.687103 
	C413.900848,364.125549 405.610474,362.436920 397.264465,361.094269 
	C395.244568,360.769318 393.040863,361.586731 390.921692,361.878815 
	C391.248260,364.015106 391.081116,366.392456 391.986237,368.246277 
	C396.051575,376.572479 400.421661,384.749878 404.100037,391.856964 
	C400.713501,393.776917 397.868500,394.871887 395.667908,396.729980 
	C387.529205,403.601990 379.755463,410.913605 371.488251,417.620819 
	C369.472595,419.256195 365.962402,420.170563 363.372925,419.797089 
	C345.443604,417.211121 328.909271,410.950256 314.703979,399.437256 
	C312.237976,397.438660 310.533386,394.500610 307.741913,391.101196 
	C306.980164,391.101196 304.730835,391.101196 302.481506,391.101196 
	C302.761780,391.434479 303.042053,391.767761 303.322327,392.101074 
	C301.524628,394.424500 300.109009,397.245270 297.855988,398.975983 
	C291.665527,403.731323 285.379150,408.464783 278.661194,412.406586 
	C268.470764,418.385803 257.336975,421.592773 245.368179,421.526489 
	C224.857407,421.412903 208.306244,411.996277 193.222427,399.286102 
	C190.899521,397.328705 189.378983,394.419067 186.841736,391.107025 
	C185.968201,391.107025 183.726974,391.107025 181.485748,391.107025 
	C181.752487,391.430664 182.019226,391.754303 182.285965,392.077942 
	C180.592300,394.269592 179.327713,397.138031 177.128525,398.532349 
	C168.868484,403.769348 160.303528,408.525452 151.143448,413.760895 
M168.389191,262.825348 
	C151.455856,262.825348 134.522507,262.825348 117.662285,262.825348 
	C117.367767,263.891479 117.127808,264.355591 117.127258,264.820007 
	C117.098557,289.308044 117.140945,313.796387 117.024574,338.283936 
	C117.007149,341.949615 119.164551,341.719940 121.588753,341.717102 
	C137.581039,341.698395 153.573395,341.717377 169.565659,341.688446 
	C170.835815,341.686157 172.105484,341.414886 173.485580,341.255920 
	C173.485580,336.476776 173.485580,332.057892 173.485580,326.896851 
	C159.867249,326.896851 146.512009,326.896851 133.364838,326.896851 
	C133.364838,320.396606 133.364838,314.649353 133.364838,308.292053 
	C143.476151,308.292053 153.196472,308.292053 162.880829,308.292053 
	C162.880829,303.234100 162.880829,298.810181 162.880829,293.790283 
	C152.854584,293.790283 143.126801,293.790283 133.370636,293.790283 
	C133.370636,287.968506 133.370636,282.763153 133.370636,276.934875 
	C146.815018,276.934875 159.863098,276.934875 173.131683,276.934875 
	C173.131683,272.980865 172.956223,269.646179 173.183365,266.339111 
	C173.390900,263.317596 172.014938,262.495392 168.389191,262.825348 
M288.020294,275.184570 
	C295.684143,274.817719 302.764526,275.650635 306.715546,283.637482 
	C307.064911,284.343658 308.666718,284.998474 309.485413,284.808655 
	C313.639038,283.845490 317.726166,282.595612 322.221161,281.338684 
	C319.463409,272.744812 314.460480,266.916382 306.512665,263.848450 
	C296.819672,260.106873 286.976654,260.030151 277.161255,263.392578 
	C266.567719,267.021515 260.871063,276.596497 262.520386,287.708649 
	C264.226685,299.204865 272.383728,304.073975 282.399475,306.848755 
	C288.489746,308.536041 294.750061,309.621033 300.813232,311.390472 
	C304.632446,312.505066 307.003265,315.397858 306.901337,319.593170 
	C306.797668,323.859619 304.592621,326.703979 300.475372,328.134888 
	C289.979950,331.782471 280.023834,327.943756 274.630737,317.719696 
	C270.034424,318.933014 265.336090,320.173279 260.540649,321.439148 
	C261.682739,328.479889 264.737549,333.639801 270.056580,336.874756 
	C283.607269,345.116302 297.851562,345.209839 312.121460,338.949524 
	C317.380127,336.642548 320.609589,332.105957 321.994873,326.418427 
	C325.457336,312.202728 319.543884,301.614136 305.497803,297.468597 
	C299.280975,295.633789 292.829651,294.595795 286.607269,292.776947 
	C282.109772,291.462311 278.345764,289.084167 278.609436,283.385315 
	C278.866333,277.832733 282.651642,276.218231 288.020294,275.184570 
M360.496155,343.074432 
	C364.614471,342.567017 368.830139,342.456696 372.832336,341.475616 
	C383.646667,338.824860 389.618530,331.466980 390.002075,320.966705 
	C390.421600,309.481384 385.317688,301.750793 374.514343,298.094360 
	C370.273651,296.659088 365.800293,295.925812 361.476410,294.717194 
	C357.650421,293.647766 353.771576,292.631561 350.124298,291.096985 
	C346.425201,289.540558 344.732208,286.005188 346.064819,282.459686 
	C347.024963,279.905212 349.516968,277.022034 351.997955,276.105743 
	C361.042572,272.765320 369.012878,276.146362 375.059937,285.300140 
	C379.633484,284.035889 384.341492,282.734497 389.404266,281.335022 
	C386.726837,273.247772 382.235229,267.484222 374.936707,264.381927 
	C364.165833,259.803650 353.129730,259.685303 342.354126,264.199402 
	C334.503479,267.488251 330.192566,273.641357 329.687195,282.390686 
	C329.170502,291.335052 331.992340,298.522186 340.080048,302.918549 
	C343.263428,304.649017 346.744781,305.968353 350.236206,306.963654 
	C355.671936,308.513245 361.258057,309.526947 366.731384,310.955627 
	C371.209900,312.124573 374.036560,314.855957 373.948853,319.831512 
	C373.867065,324.472260 371.241852,327.343719 365.939758,328.633606 
	C355.414124,331.194275 347.536133,327.752472 341.626160,317.777527 
	C337.115295,318.967468 332.508789,320.182617 327.540710,321.493134 
	C328.925049,328.203125 331.939087,333.308899 337.243591,337.010559 
	C343.951233,341.691406 351.604370,342.921631 360.496155,343.074432 
M322.773499,194.689774 
	C329.664429,175.874908 351.912109,171.676910 365.352692,186.595032 
	C366.338501,187.689224 368.102844,189.068298 369.243622,188.862762 
	C373.735199,188.053513 378.122223,186.663620 382.582153,185.480194 
	C377.179291,169.711731 357.437500,160.123764 338.777161,163.561340 
	C317.413727,167.496872 304.780304,184.033875 305.763763,206.775558 
	C306.661072,227.524918 321.320618,242.729965 342.427979,244.804001 
	C360.833679,246.612579 379.450348,235.573257 383.336578,220.336670 
	C380.469574,219.548111 377.512085,218.976944 374.742218,217.916031 
	C370.588287,216.324966 368.091553,217.288116 365.289398,221.055710 
	C359.363434,229.023361 350.648407,231.244659 341.178497,229.705017 
	C332.220947,228.248688 325.581177,222.890717 323.356201,214.185959 
	C321.844238,208.270737 322.718231,201.745651 322.773499,194.689774 
M199.251053,283.820709 
	C210.644684,272.704712 226.794388,273.257202 237.225311,284.998871 
	C238.160034,286.051056 240.012146,287.175842 241.198288,286.958374 
	C245.551483,286.160217 249.803360,284.809631 254.092514,283.667236 
	C249.925232,269.092194 230.408356,258.784760 212.691788,261.372345 
	C190.769943,264.574188 176.914246,280.700378 177.207642,302.671265 
	C177.492844,324.029083 191.463837,340.001465 212.317474,342.810669 
	C231.279984,345.365143 250.714569,334.459900 254.940292,318.508881 
	C251.954178,317.679291 248.892471,317.014008 245.966263,315.969238 
	C242.237167,314.637817 239.915131,315.156281 237.312637,318.786316 
	C230.086792,328.864960 215.090973,331.292236 204.524399,324.749359 
	C192.023514,317.008728 189.346603,298.157349 199.251053,283.820709 
M182.534698,164.644318 
	C180.453812,164.644318 178.372910,164.644318 175.925797,164.644318 
	C175.925797,175.253723 176.030380,185.058029 175.891357,194.858887 
	C175.787628,202.171417 175.930847,209.556244 174.945312,216.769669 
	C173.774200,225.341553 167.961426,229.791702 159.401245,230.054184 
	C147.992691,230.404037 141.527100,225.173325 140.992661,213.778915 
	C140.322052,199.481461 140.539474,185.142273 140.380463,170.821014 
	C140.359100,168.897079 140.377518,166.972717 140.377518,165.081146 
	C134.725418,165.081146 129.849014,165.081146 125.051826,165.081146 
	C125.051826,182.656189 124.636848,199.808441 125.227158,216.926041 
	C125.521652,225.465668 129.377960,233.183762 136.574966,238.334747 
	C148.159439,246.625916 160.987091,247.030136 173.651199,241.739853 
	C185.726791,236.695450 190.641602,226.079041 191.038086,213.635681 
	C191.536560,197.991516 191.251541,182.322174 191.266937,166.663666 
	C191.267517,166.067917 190.874969,165.471771 190.584183,164.643997 
	C188.155212,164.643997 185.836304,164.643997 182.534698,164.644318 
M243.191376,207.655273 
	C241.091522,213.596725 238.991684,219.538193 236.621201,226.245453 
	C235.802551,224.227814 235.264801,223.040176 234.832108,221.815430 
	C228.564865,204.075195 222.346359,186.317566 215.993484,168.608093 
	C215.448196,167.088013 214.123566,164.804764 213.007324,164.711288 
	C207.962082,164.288818 202.861557,164.526657 197.294250,164.526657 
	C197.968369,166.806854 198.303986,168.239746 198.810181,169.609619 
	C206.198059,189.601974 213.581604,209.596024 221.034683,229.564117 
	C222.713135,234.060944 223.480698,240.272018 226.790222,242.413422 
	C230.362289,244.724701 236.445267,242.956650 241.393402,243.404694 
	C245.146835,243.744553 246.636993,242.065445 247.801620,238.800171 
	C252.332657,226.096130 257.114227,213.481537 261.785980,200.827545 
	C266.150269,189.006271 270.493439,177.177231 275.163727,164.488068 
	C269.736115,164.488068 264.961151,164.284637 260.227631,164.637238 
	C259.104156,164.720932 257.614349,166.487183 257.149139,167.786102 
	C252.489426,180.796738 248.008728,193.871490 243.191376,207.655273 
M281.741547,206.499969 
	C281.741547,218.603027 281.741547,230.706070 281.741547,243.049469 
	C287.109528,243.049469 291.844391,243.049469 296.857452,243.049469 
	C296.857452,216.904785 296.857452,191.028763 296.857452,164.922302 
	C291.817810,164.922302 287.080811,164.922302 281.741364,164.922302 
	C281.741364,178.623993 281.741364,192.061981 281.741547,206.499969 
M118.573318,91.078484 
	C111.490662,97.479721 104.408005,103.880959 97.082123,110.502022 
	C99.557053,112.854912 101.177116,114.395096 102.887039,116.020699 
	C119.015572,99.243965 136.586639,85.349785 157.048370,75.326591 
	C158.377182,77.360260 159.332962,78.823006 160.624496,80.799614 
	C164.577835,74.909103 168.222412,69.478630 172.302048,63.399933 
	C164.827988,62.863544 158.312973,62.395985 151.376129,61.898151 
	C152.225098,64.333046 152.858780,66.150475 153.235168,67.229996 
	C141.567505,75.230934 130.342789,82.928123 118.573318,91.078484 
M151.771194,104.294968 
	C153.374069,99.328484 154.976944,94.362000 156.543259,89.508820 
	C153.415878,89.508820 149.403366,89.508820 145.096512,89.508820 
	C150.360199,94.937096 145.495743,99.745544 144.644394,104.522896 
	C143.702759,109.807053 141.490402,114.864761 139.913727,119.765366 
	C142.932800,119.765366 147.085938,119.765366 150.092316,119.765366 
	C149.788498,117.383385 149.113312,115.248558 149.355972,113.223717 
	C149.687958,110.453476 150.717621,107.766846 151.771194,104.294968 
M404.872314,110.650398 
	C406.872314,113.032768 408.872314,115.415138 411.067627,118.030167 
	C413.141693,116.251122 414.839752,114.794601 417.028015,112.917618 
	C411.121826,106.354332 405.555206,100.168404 400.092529,94.097992 
	C397.708527,96.036705 396.058502,97.378555 394.204163,98.886543 
	C397.962738,103.026001 401.182800,106.572357 404.872314,110.650398 
M259.358307,30.173185 
	C257.620880,30.173185 255.883453,30.173185 253.986313,30.173185 
	C253.986313,32.918926 253.986313,35.032101 253.986313,37.386860 
	C262.167908,38.208252 270.158722,39.010490 278.577515,39.855698 
	C278.839111,37.343571 279.070526,35.121296 279.356842,32.372173 
	C272.680023,31.625484 266.472290,30.931257 259.358307,30.173185 
M312.188812,42.869118 
	C311.615051,41.833637 311.260498,40.151657 310.431000,39.870407 
	C305.946075,38.349751 301.343475,37.175976 294.947693,35.362740 
	C295.714691,39.066978 295.505768,42.999897 296.849823,43.632332 
	C301.065063,45.615814 305.865295,46.356129 310.615021,47.625019 
	C311.158783,46.038372 311.581421,44.805206 312.188812,42.869118 
M382.338440,88.180557 
	C384.339447,89.885826 386.340454,91.591103 388.592682,93.510475 
	C390.289825,91.652512 391.805237,89.993492 393.691193,87.928818 
	C389.149017,84.030670 384.964844,80.439766 380.599243,76.693169 
	C378.809601,78.951050 377.408813,80.718338 375.860626,82.671600 
	C378.020569,84.525299 379.897278,86.135933 382.338440,88.180557 
M334.891083,54.419468 
	C335.452759,52.962742 336.014435,51.506016 336.719299,49.677967 
	C331.156097,47.447914 326.200409,45.461380 320.901581,43.337299 
	C319.898376,46.112591 319.147217,48.190586 318.359741,50.369061 
	C322.786224,52.237148 326.672394,54.018856 330.677277,55.473785 
	C331.760376,55.867268 333.202881,55.271332 334.891083,54.419468 
M432.440063,143.834091 
	C433.488831,143.099548 434.537598,142.365005 435.884277,141.421783 
	C432.863831,136.553604 430.015411,131.962662 426.990753,127.087708 
	C424.575592,128.694855 422.701447,129.942001 420.712128,131.265778 
	C423.256134,135.440521 425.444336,139.351715 428.007416,142.999512 
	C428.606506,143.852127 430.476746,143.811600 432.440063,143.834091 
M349.973907,65.335220 
	C351.780121,66.378616 353.586365,67.422012 355.677856,68.630211 
	C357.049500,66.236473 358.157043,64.303581 359.455658,62.037254 
	C356.837311,60.493946 354.630920,59.193462 351.582397,57.396587 
	C350.714508,60.283298 350.016052,62.606552 349.973907,65.335220 
M365.628876,68.211685 
	C364.650085,69.675682 363.671265,71.139679 362.453278,72.961456 
	C364.830261,74.610672 366.922882,76.062584 369.395905,77.778435 
	C370.881500,75.655113 372.146698,73.846817 374.005554,71.190025 
	C371.011047,69.852272 368.545959,68.751045 365.628876,68.211685 
z"/>
<path fill="#FF9727" opacity="1.000000" stroke="none" 
	d="
M151.498123,413.611328 
	C160.303528,408.525452 168.868484,403.769348 177.128525,398.532349 
	C179.327713,397.138031 180.592300,394.269592 182.285965,392.077942 
	C182.019226,391.754303 181.752487,391.430664 181.485748,391.107025 
	C183.726974,391.107025 185.968201,391.107025 186.841736,391.107025 
	C189.378983,394.419067 190.899521,397.328705 193.222427,399.286102 
	C208.306244,411.996277 224.857407,421.412903 245.368179,421.526489 
	C257.336975,421.592773 268.470764,418.385803 278.661194,412.406586 
	C285.379150,408.464783 291.665527,403.731323 297.855988,398.975983 
	C300.109009,397.245270 301.524628,394.424500 303.322327,392.101074 
	C303.042053,391.767761 302.761780,391.434479 302.481506,391.101196 
	C304.730835,391.101196 306.980164,391.101196 307.741913,391.101196 
	C310.533386,394.500610 312.237976,397.438660 314.703979,399.437256 
	C328.909271,410.950256 345.443604,417.211121 363.372925,419.797089 
	C365.962402,420.170563 369.472595,419.256195 371.488251,417.620819 
	C379.755463,410.913605 387.529205,403.601990 395.667908,396.729980 
	C397.868500,394.871887 400.713501,393.776917 404.100037,391.856964 
	C400.421661,384.749878 396.051575,376.572479 391.986237,368.246277 
	C391.081116,366.392456 391.248260,364.015106 390.921692,361.878815 
	C393.040863,361.586731 395.244568,360.769318 397.264465,361.094269 
	C405.610474,362.436920 413.900848,364.125549 422.211639,365.687103 
	C422.475372,365.309692 422.739105,364.932312 423.002838,364.554901 
	C421.241943,361.898468 419.220245,359.371033 417.817963,356.537140 
	C416.977173,354.837982 416.367950,352.326508 417.053284,350.813812 
	C417.514740,349.795288 420.513672,349.303192 422.215851,349.577606 
	C429.713318,350.786285 429.647430,350.895233 433.034058,344.306946 
	C443.632721,323.688568 450.215057,301.812103 453.913879,278.975311 
	C454.318481,276.477386 456.218842,274.221741 457.855499,271.009796 
	C450.982300,267.534332 442.816345,263.565948 434.832672,259.259705 
	C432.731598,258.126373 431.194366,255.947739 429.398193,254.249130 
	C431.177673,252.713531 432.741028,250.752655 434.775421,249.718613 
	C442.162689,245.963867 449.707794,242.519608 458.579651,238.298691 
	C453.998383,236.587433 450.706543,235.639450 447.704498,234.119186 
	C446.173157,233.343719 444.413727,231.667160 444.159943,230.161469 
	C443.967773,229.021484 445.721405,227.041794 447.082764,226.237274 
	C454.273163,221.988052 454.391205,222.064972 452.995819,213.840042 
	C450.090973,196.718094 445.421448,180.101974 438.513763,164.141525 
	C437.998169,162.950226 437.544830,161.731934 436.922180,160.175186 
	C439.181915,159.117279 441.247070,158.150467 443.554718,157.070129 
	C450.885223,171.996353 455.369965,187.621201 458.817322,203.568344 
	C460.116333,209.577545 461.236572,215.662811 461.814606,221.772415 
	C462.052246,224.284195 460.644287,226.951660 459.793793,230.300674 
	C460.938660,230.783386 463.571808,231.594727 465.876740,232.960144 
	C467.715363,234.049332 470.402588,235.788864 470.432587,237.285400 
	C470.465118,238.908340 468.157715,241.108185 466.348450,242.145477 
	C458.853027,246.442703 451.160126,250.395508 443.479248,254.507141 
	C452.161835,259.422333 460.885559,264.197968 469.402283,269.317871 
	C471.129181,270.355988 472.074768,272.693756 473.380524,274.432373 
	C471.636139,275.721741 470.005707,277.892151 468.126007,278.135254 
	C462.493103,278.863800 460.839478,281.856598 459.968750,287.212708 
	C456.063324,311.236023 447.890900,333.863953 435.909546,355.047638 
	C434.718109,357.154205 431.953644,358.371063 429.581787,360.271240 
	C430.348785,361.521912 431.884552,363.521729 432.858398,365.765472 
	C433.716553,367.742676 435.029816,371.048187 434.212860,371.886108 
	C432.821045,373.313629 429.842865,373.950867 427.660126,373.716949 
	C419.259216,372.816528 410.909454,371.438904 402.149872,370.183197 
	C405.964081,378.477570 409.682556,386.532593 413.366760,394.603241 
	C414.056885,396.115082 414.891632,397.645325 415.143250,399.248138 
	C415.374756,400.722870 415.444641,402.804779 414.605255,403.704559 
	C413.741058,404.630951 411.150146,405.246704 410.246948,404.631012 
	C402.987518,399.682159 398.750244,404.241699 393.844055,408.870209 
	C360.207458,440.603027 320.234589,459.602600 274.533905,465.616638 
	C217.800827,473.082550 165.820068,459.866302 118.806259,427.158112 
	C115.841789,425.095703 115.003693,422.917419 116.205963,419.565186 
	C118.676178,412.677582 120.670769,405.603333 123.452728,398.849640 
	C125.093300,394.866852 122.046722,393.991180 120.311043,392.042938 
	C118.513168,390.024994 116.786087,389.715729 114.264694,391.131317 
	C108.173248,394.551361 101.844925,397.546722 95.703911,400.882324 
	C92.280319,402.741913 89.776382,402.412994 86.920807,399.458038 
	C74.631508,386.740997 74.534088,386.818146 84.208641,372.164062 
	C86.593910,368.551086 89.071465,364.999084 91.506271,361.418823 
	C87.612785,353.098083 87.609818,353.119019 79.072708,355.084747 
	C73.399178,356.391113 67.698196,357.578217 62.024513,358.883942 
	C58.654545,359.659485 56.268349,358.823700 54.723610,355.471588 
	C52.914879,351.546692 50.904697,347.697510 48.722847,343.966980 
	C46.905846,340.860291 47.190334,338.552704 49.990467,336.138275 
	C55.412498,331.463104 60.413452,326.283295 65.980263,321.798370 
	C69.311058,319.114929 67.721001,316.734802 66.928528,313.891083 
	C66.142471,311.070374 64.801338,309.950317 61.710701,310.024384 
	C54.719852,310.191895 47.716820,309.777985 40.721172,309.846985 
	C36.842159,309.885254 34.918060,308.071289 34.139782,304.483002 
	C33.187843,300.094116 32.145706,295.724365 31.105106,291.355255 
	C30.390310,288.354095 31.259283,286.315033 34.153797,284.853760 
	C40.838093,281.479248 47.336262,277.732056 54.056721,274.435242 
	C56.507351,273.233063 57.279881,271.820862 56.516998,269.369537 
	C55.728504,266.835968 57.250015,263.484375 52.623966,262.527283 
	C45.480560,261.049408 38.542759,258.590729 31.496656,256.623596 
	C28.300428,255.731293 26.863031,253.878021 27.050255,250.453003 
	C27.295578,245.965088 27.236208,241.457764 27.218199,236.959137 
	C27.205008,233.663666 28.504847,231.753342 31.937344,231.023712 
	C38.926910,229.537964 45.784348,227.313644 52.824806,226.225922 
	C57.425972,225.515076 56.883644,222.297791 57.778942,219.468384 
	C58.779144,216.307495 56.975357,215.102966 54.584381,213.775864 
	C48.619003,210.464798 42.856972,206.786194 36.878822,203.499771 
	C33.361694,201.566269 32.566349,199.270447 33.601254,195.321838 
	C48.659977,137.866608 81.251175,93.243759 131.662598,61.922421 
	C165.212006,41.077698 202.009781,30.667864 241.511795,29.879723 
	C242.492172,29.860163 243.473267,29.877258 244.854889,29.877258 
	C244.854889,32.315784 244.854889,34.518955 244.854889,37.050720 
	C237.068283,37.676498 229.286087,38.031467 221.573883,38.964817 
	C163.709030,45.967739 116.584297,72.447289 80.097023,117.759132 
	C62.439468,139.687210 50.183964,164.483124 42.443195,191.557129 
	C41.322918,195.475388 41.618534,197.962769 45.584946,199.944366 
	C51.385754,202.842438 56.861065,206.386673 62.621742,209.372604 
	C65.647446,210.940933 66.632133,213.034775 66.024384,216.245193 
	C65.375237,219.674271 64.542831,223.121109 64.415550,226.583191 
	C64.257935,230.869827 61.862411,232.188263 58.192944,232.915710 
	C50.541656,234.432495 42.941360,236.206497 35.666664,237.798950 
	C35.292896,238.656525 35.066669,238.951828 35.042843,239.262650 
	C34.241638,249.714859 34.237778,249.739594 44.452358,252.518036 
	C49.106079,253.783875 53.773308,255.011734 58.469975,256.103851 
	C61.616314,256.835480 63.127644,258.455200 63.565109,261.840912 
	C65.521942,276.985779 65.618591,276.966736 52.175144,283.869293 
	C49.362804,285.313293 46.699482,287.134003 43.761162,288.225830 
	C39.381706,289.853149 38.910316,292.397217 39.995495,296.660431 
	C41.011623,300.652405 42.388573,302.531921 46.824001,302.368744 
	C53.300713,302.130463 59.808174,302.821259 66.293381,302.684021 
	C69.958420,302.606445 71.948647,303.949432 72.706749,307.406921 
	C72.813568,307.894012 72.939255,308.380768 73.104446,308.850739 
	C77.641113,321.757751 77.631592,321.745178 67.206238,330.759979 
	C64.687088,332.938293 62.403015,335.411163 59.759052,337.416626 
	C56.564274,339.839813 56.291664,342.074860 58.057041,345.818054 
	C60.165016,350.287720 62.551769,351.564056 67.241158,350.112061 
	C73.109657,348.294983 79.209290,347.235413 85.116547,345.528381 
	C88.579636,344.527649 90.804253,345.344879 92.629959,348.421265 
	C94.410629,351.421753 96.391045,354.341248 98.594154,357.043213 
	C100.918098,359.893372 100.571373,362.191193 98.492653,365.057648 
	C93.808510,371.516785 89.445236,378.208649 84.654953,385.240997 
	C87.265121,388.196320 89.739403,390.997772 92.467636,394.086761 
	C99.820930,390.168762 106.938438,386.567810 113.850891,382.608795 
	C117.082832,380.757751 119.578346,380.535828 122.216362,383.471924 
	C123.873726,385.316559 125.942406,386.791962 127.828552,388.430725 
	C133.696365,393.528900 133.641769,393.507904 130.851105,400.945740 
	C128.581406,406.995026 126.464012,413.101410 124.279091,419.182495 
	C124.571815,419.725250 124.864548,420.267975 125.157280,420.810730 
	C133.819336,418.460785 142.481384,416.110840 151.498123,413.611328 
M282.126648,456.787323 
	C287.799561,455.508270 293.499939,454.334045 299.122223,452.861664 
	C300.246399,452.567261 301.861389,451.172974 301.906464,450.222076 
	C302.170837,444.648041 302.036346,439.055115 302.036346,433.484253 
	C263.924225,433.484253 226.541046,433.484253 188.779617,433.484253 
	C188.779617,438.631989 188.944611,443.449371 188.720078,448.248535 
	C188.576706,451.313110 189.646133,452.476074 192.678253,453.262848 
	C221.964874,460.862122 251.486267,461.876556 282.126648,456.787323 
M178.228348,433.131836 
	C167.069489,433.131836 155.910614,433.131836 144.751755,433.131836 
	C144.605042,433.684631 144.458328,434.237427 144.311600,434.790253 
	C156.265289,439.914490 168.218964,445.038696 181.072388,450.548615 
	C181.072388,444.384979 181.164368,439.919006 180.986755,435.463776 
	C180.955154,434.670990 179.804169,433.922791 178.228348,433.131836 
M311.154510,449.205292 
	C323.535431,445.587494 335.163361,440.308105 347.476746,433.410400 
	C334.143097,433.410400 322.238647,433.410400 310.278442,433.410400 
	C310.278442,438.785675 310.278442,443.879913 311.154510,449.205292 
M174.035751,405.906647 
	C173.292984,406.916168 171.943787,407.904510 171.907654,408.938690 
	C171.701279,414.846130 171.807449,420.764496 171.807449,426.819702 
	C175.158615,426.819702 177.981644,426.819702 180.698517,426.819702 
	C180.698517,418.101715 180.698517,409.810608 180.698517,401.049225 
	C178.375854,402.753479 176.527069,404.110016 174.035751,405.906647 
M315.445557,427.240265 
	C317.726532,427.453979 319.302765,427.043976 319.107208,424.127014 
	C318.907928,421.154602 318.589722,418.064117 319.158630,415.190643 
	C320.692963,407.440674 315.571747,404.555298 310.200378,401.459656 
	C310.200378,410.163818 310.200378,418.542755 310.200378,427.049316 
	C311.870453,427.124176 313.178925,427.182861 315.445557,427.240265 
M292.873993,414.671265 
	C292.873993,418.753479 292.873993,422.835693 292.873993,426.851196 
	C296.313049,426.851196 299.021790,426.851196 301.615540,426.851196 
	C301.615540,418.186188 301.615540,409.922119 301.615540,401.053284 
	C297.548126,405.106201 291.345428,406.759674 292.873993,414.671265 
M188.778442,414.511292 
	C188.778442,418.601044 188.778442,422.690765 188.778442,426.932281 
	C192.121597,426.932281 194.830704,426.932281 198.018661,426.932281 
	C197.061569,417.601318 202.127472,406.742767 188.778244,401.662018 
	C188.778244,405.716797 188.778244,409.619751 188.778442,414.511292 
M322.888916,414.059937 
	C322.888916,418.312286 322.888916,422.564636 322.888916,426.932007 
	C326.890961,426.932007 330.267334,426.932007 333.591553,426.932007 
	C335.169281,415.797516 334.098267,414.170898 323.070770,410.766083 
	C323.008667,411.607239 322.949402,412.410126 322.888916,414.059937 
M161.501495,427.255768 
	C163.549026,427.255768 165.596558,427.255768 167.932281,427.255768 
	C167.932281,423.745758 167.932281,421.122864 167.932281,418.499969 
	C167.932281,415.973633 167.932281,413.447296 167.932281,410.677094 
	C156.936966,414.451202 156.405685,415.290161 156.650574,423.802917 
	C156.736725,426.797424 157.949661,427.556061 161.501495,427.255768 
M280.335510,415.973328 
	C275.028839,418.616119 278.129730,423.063904 277.461304,426.852417 
	C281.538971,426.852417 285.064850,426.852417 288.664429,426.852417 
	C288.664429,421.561554 288.664429,416.695801 288.664429,411.279297 
	C285.825562,412.890076 283.415222,414.257721 280.335510,415.973328 
M201.988098,423.375916 
	C202.487228,427.671997 205.820953,428.584625 212.951843,426.377380 
	C213.646606,417.043030 211.947250,414.784363 201.987579,411.996002 
	C201.987579,415.504181 201.987579,418.963501 201.988098,423.375916 
M141.557236,421.335327 
	C141.557236,423.216614 141.557236,425.097931 141.557236,426.974274 
	C145.465988,426.974274 148.883224,426.974274 152.493347,426.974274 
	C152.493347,423.815186 152.493347,420.964294 152.493347,417.522583 
	C148.744843,418.729675 145.477798,419.781738 141.557236,421.335327 
M338.043976,422.590393 
	C338.137970,424.015717 338.231964,425.441071 338.330902,426.941010 
	C342.066528,426.941010 345.433685,426.941010 348.753265,426.941010 
	C349.628876,420.467102 347.655487,418.887390 338.223938,418.263245 
	C338.163910,419.403564 338.103973,420.542175 338.043976,422.590393 
M264.261993,422.740479 
	C263.638672,423.730804 263.015320,424.721100 262.391998,425.711426 
	C263.281830,426.231628 264.144012,427.133514 265.066711,427.200409 
	C267.819214,427.399994 270.595490,427.272064 273.440857,427.272064 
	C273.440857,424.440887 273.440857,422.273438 273.440857,419.637878 
	C270.285400,420.679840 267.637177,421.554321 264.261993,422.740479 
M227.132080,427.118744 
	C228.898148,425.238007 228.872314,423.613617 226.274445,422.666168 
	C223.401855,421.618439 220.461395,420.756775 217.449249,419.781281 
	C217.449249,422.529816 217.449249,424.744720 217.449249,427.235016 
	C220.626373,427.235016 223.420593,427.235016 227.132080,427.118744 
M137.767944,424.408081 
	C134.889252,418.866302 131.621124,425.079468 128.605011,423.685425 
	C133.414398,428.443176 135.410797,428.678375 137.767944,424.408081 
M250.765106,425.088989 
	C249.597824,425.361023 248.430527,425.633057 247.263229,425.905060 
	C254.367828,428.658600 257.946533,427.929749 258.348846,424.302216 
	C256.062653,424.553864 253.826004,424.800049 250.765106,425.088989 
M354.600647,427.223206 
	C357.088287,426.498932 359.575897,425.774658 362.063538,425.050385 
	C361.932709,424.545807 361.801910,424.041199 361.671082,423.536621 
	C359.002258,423.041901 356.333435,422.547211 352.965240,421.922852 
	C353.298798,423.961334 353.545471,425.468933 354.600647,427.223206 
M241.205826,425.163208 
	C238.314590,424.910400 235.423355,424.657562 232.532120,424.404724 
	C232.317780,424.780762 232.103439,425.156799 231.889099,425.532867 
	C232.874542,426.121429 233.915695,427.279694 234.834793,427.189819 
	C237.404541,426.938568 239.923798,426.171021 242.462982,425.607269 
	C242.330902,425.509552 242.198807,425.411804 241.205826,425.163208 
z"/>
<path fill="#FF9523" opacity="1.000000" stroke="none" 
	d="
M168.875305,262.825806 
	C172.014938,262.495392 173.390900,263.317596 173.183365,266.339111 
	C172.956223,269.646179 173.131683,272.980865 173.131683,276.934875 
	C159.863098,276.934875 146.815018,276.934875 133.370636,276.934875 
	C133.370636,282.763153 133.370636,287.968506 133.370636,293.790283 
	C143.126801,293.790283 152.854584,293.790283 162.880829,293.790283 
	C162.880829,298.810181 162.880829,303.234100 162.880829,308.292053 
	C153.196472,308.292053 143.476151,308.292053 133.364838,308.292053 
	C133.364838,314.649353 133.364838,320.396606 133.364838,326.896851 
	C146.512009,326.896851 159.867249,326.896851 173.485580,326.896851 
	C173.485580,332.057892 173.485580,336.476776 173.485580,341.255920 
	C172.105484,341.414886 170.835815,341.686157 169.565659,341.688446 
	C153.573395,341.717377 137.581039,341.698395 121.588753,341.717102 
	C119.164551,341.719940 117.007149,341.949615 117.024574,338.283936 
	C117.140945,313.796387 117.098557,289.308044 117.127258,264.820007 
	C117.127808,264.355591 117.367767,263.891479 117.662285,262.825348 
	C134.522507,262.825348 151.455856,262.825348 168.875305,262.825806 
z"/>
<path fill="#FF9523" opacity="1.000000" stroke="none" 
	d="
M287.604797,275.249359 
	C282.651642,276.218231 278.866333,277.832733 278.609436,283.385315 
	C278.345764,289.084167 282.109772,291.462311 286.607269,292.776947 
	C292.829651,294.595795 299.280975,295.633789 305.497803,297.468597 
	C319.543884,301.614136 325.457336,312.202728 321.994873,326.418427 
	C320.609589,332.105957 317.380127,336.642548 312.121460,338.949524 
	C297.851562,345.209839 283.607269,345.116302 270.056580,336.874756 
	C264.737549,333.639801 261.682739,328.479889 260.540649,321.439148 
	C265.336090,320.173279 270.034424,318.933014 274.630737,317.719696 
	C280.023834,327.943756 289.979950,331.782471 300.475372,328.134888 
	C304.592621,326.703979 306.797668,323.859619 306.901337,319.593170 
	C307.003265,315.397858 304.632446,312.505066 300.813232,311.390472 
	C294.750061,309.621033 288.489746,308.536041 282.399475,306.848755 
	C272.383728,304.073975 264.226685,299.204865 262.520386,287.708649 
	C260.871063,276.596497 266.567719,267.021515 277.161255,263.392578 
	C286.976654,260.030151 296.819672,260.106873 306.512665,263.848450 
	C314.460480,266.916382 319.463409,272.744812 322.221161,281.338684 
	C317.726166,282.595612 313.639038,283.845490 309.485413,284.808655 
	C308.666718,284.998474 307.064911,284.343658 306.715546,283.637482 
	C302.764526,275.650635 295.684143,274.817719 287.604797,275.249359 
z"/>
<path fill="#FF9523" opacity="1.000000" stroke="none" 
	d="
M360.021515,343.074646 
	C351.604370,342.921631 343.951233,341.691406 337.243591,337.010559 
	C331.939087,333.308899 328.925049,328.203125 327.540710,321.493134 
	C332.508789,320.182617 337.115295,318.967468 341.626160,317.777527 
	C347.536133,327.752472 355.414124,331.194275 365.939758,328.633606 
	C371.241852,327.343719 373.867065,324.472260 373.948853,319.831512 
	C374.036560,314.855957 371.209900,312.124573 366.731384,310.955627 
	C361.258057,309.526947 355.671936,308.513245 350.236206,306.963654 
	C346.744781,305.968353 343.263428,304.649017 340.080048,302.918549 
	C331.992340,298.522186 329.170502,291.335052 329.687195,282.390686 
	C330.192566,273.641357 334.503479,267.488251 342.354126,264.199402 
	C353.129730,259.685303 364.165833,259.803650 374.936707,264.381927 
	C382.235229,267.484222 386.726837,273.247772 389.404266,281.335022 
	C384.341492,282.734497 379.633484,284.035889 375.059937,285.300140 
	C369.012878,276.146362 361.042572,272.765320 351.997955,276.105743 
	C349.516968,277.022034 347.024963,279.905212 346.064819,282.459686 
	C344.732208,286.005188 346.425201,289.540558 350.124298,291.096985 
	C353.771576,292.631561 357.650421,293.647766 361.476410,294.717194 
	C365.800293,295.925812 370.273651,296.659088 374.514343,298.094360 
	C385.317688,301.750793 390.421600,309.481384 390.002075,320.966705 
	C389.618530,331.466980 383.646667,338.824860 372.832336,341.475616 
	C368.830139,342.456696 364.614471,342.567017 360.021515,343.074646 
z"/>
<path fill="#FF9523" opacity="1.000000" stroke="none" 
	d="
M322.649353,195.091537 
	C322.718231,201.745651 321.844238,208.270737 323.356201,214.185959 
	C325.581177,222.890717 332.220947,228.248688 341.178497,229.705017 
	C350.648407,231.244659 359.363434,229.023361 365.289398,221.055710 
	C368.091553,217.288116 370.588287,216.324966 374.742218,217.916031 
	C377.512085,218.976944 380.469574,219.548111 383.336578,220.336670 
	C379.450348,235.573257 360.833679,246.612579 342.427979,244.804001 
	C321.320618,242.729965 306.661072,227.524918 305.763763,206.775558 
	C304.780304,184.033875 317.413727,167.496872 338.777161,163.561340 
	C357.437500,160.123764 377.179291,169.711731 382.582153,185.480194 
	C378.122223,186.663620 373.735199,188.053513 369.243622,188.862762 
	C368.102844,189.068298 366.338501,187.689224 365.352692,186.595032 
	C351.912109,171.676910 329.664429,175.874908 322.649353,195.091537 
z"/>
<path fill="#FF9523" opacity="1.000000" stroke="none" 
	d="
M199.021851,284.102814 
	C189.346603,298.157349 192.023514,317.008728 204.524399,324.749359 
	C215.090973,331.292236 230.086792,328.864960 237.312637,318.786316 
	C239.915131,315.156281 242.237167,314.637817 245.966263,315.969238 
	C248.892471,317.014008 251.954178,317.679291 254.940292,318.508881 
	C250.714569,334.459900 231.279984,345.365143 212.317474,342.810669 
	C191.463837,340.001465 177.492844,324.029083 177.207642,302.671265 
	C176.914246,280.700378 190.769943,264.574188 212.691788,261.372345 
	C230.408356,258.784760 249.925232,269.092194 254.092514,283.667236 
	C249.803360,284.809631 245.551483,286.160217 241.198288,286.958374 
	C240.012146,287.175842 238.160034,286.051056 237.225311,284.998871 
	C226.794388,273.257202 210.644684,272.704712 199.021851,284.102814 
z"/>
<path fill="#FF9420" opacity="1.000000" stroke="none" 
	d="
M183.026047,164.644165 
	C185.836304,164.643997 188.155212,164.643997 190.584183,164.643997 
	C190.874969,165.471771 191.267517,166.067917 191.266937,166.663666 
	C191.251541,182.322174 191.536560,197.991516 191.038086,213.635681 
	C190.641602,226.079041 185.726791,236.695450 173.651199,241.739853 
	C160.987091,247.030136 148.159439,246.625916 136.574966,238.334747 
	C129.377960,233.183762 125.521652,225.465668 125.227158,216.926041 
	C124.636848,199.808441 125.051826,182.656189 125.051826,165.081146 
	C129.849014,165.081146 134.725418,165.081146 140.377518,165.081146 
	C140.377518,166.972717 140.359100,168.897079 140.380463,170.821014 
	C140.539474,185.142273 140.322052,199.481461 140.992661,213.778915 
	C141.527100,225.173325 147.992691,230.404037 159.401245,230.054184 
	C167.961426,229.791702 173.774200,225.341553 174.945312,216.769669 
	C175.930847,209.556244 175.787628,202.171417 175.891357,194.858887 
	C176.030380,185.058029 175.925797,175.253723 175.925797,164.644318 
	C178.372910,164.644318 180.453812,164.644318 183.026047,164.644165 
z"/>
<path fill="#FF9522" opacity="1.000000" stroke="none" 
	d="
M243.334488,207.291733 
	C248.008728,193.871490 252.489426,180.796738 257.149139,167.786102 
	C257.614349,166.487183 259.104156,164.720932 260.227631,164.637238 
	C264.961151,164.284637 269.736115,164.488068 275.163727,164.488068 
	C270.493439,177.177231 266.150269,189.006271 261.785980,200.827545 
	C257.114227,213.481537 252.332657,226.096130 247.801620,238.800171 
	C246.636993,242.065445 245.146835,243.744553 241.393402,243.404694 
	C236.445267,242.956650 230.362289,244.724701 226.790222,242.413422 
	C223.480698,240.272018 222.713135,234.060944 221.034683,229.564117 
	C213.581604,209.596024 206.198059,189.601974 198.810181,169.609619 
	C198.303986,168.239746 197.968369,166.806854 197.294250,164.526657 
	C202.861557,164.526657 207.962082,164.288818 213.007324,164.711288 
	C214.123566,164.804764 215.448196,167.088013 215.993484,168.608093 
	C222.346359,186.317566 228.564865,204.075195 234.832108,221.815430 
	C235.264801,223.040176 235.802551,224.227814 236.621201,226.245453 
	C238.991684,219.538193 241.091522,213.596725 243.334488,207.291733 
z"/>
<path fill="#FF931E" opacity="1.000000" stroke="none" 
	d="
M281.741455,205.999969 
	C281.741364,192.061981 281.741364,178.623993 281.741364,164.922302 
	C287.080811,164.922302 291.817810,164.922302 296.857452,164.922302 
	C296.857452,191.028763 296.857452,216.904785 296.857452,243.049469 
	C291.844391,243.049469 287.109528,243.049469 281.741547,243.049469 
	C281.741547,230.706070 281.741547,218.603027 281.741455,205.999969 
z"/>
<path fill="#FF9726" opacity="1.000000" stroke="none" 
	d="
M118.845703,90.851898 
	C130.342789,82.928123 141.567505,75.230934 153.235168,67.229996 
	C152.858780,66.150475 152.225098,64.333046 151.376129,61.898151 
	C158.312973,62.395985 164.827988,62.863544 172.302048,63.399933 
	C168.222412,69.478630 164.577835,74.909103 160.624496,80.799614 
	C159.332962,78.823006 158.377182,77.360260 157.048370,75.326591 
	C136.586639,85.349785 119.015572,99.243965 102.887039,116.020699 
	C101.177116,114.395096 99.557053,112.854912 97.082123,110.502022 
	C104.408005,103.880959 111.490662,97.479721 118.845703,90.851898 
z"/>
<path fill="#FF9A2C" opacity="1.000000" stroke="none" 
	d="
M151.609711,104.669678 
	C150.717621,107.766846 149.687958,110.453476 149.355972,113.223717 
	C149.113312,115.248558 149.788498,117.383385 150.092316,119.765366 
	C147.085938,119.765366 142.932800,119.765366 139.913727,119.765366 
	C141.490402,114.864761 143.702759,109.807053 144.644394,104.522896 
	C145.495743,99.745544 150.360199,94.937096 145.096512,89.508820 
	C149.403366,89.508820 153.415878,89.508820 156.543259,89.508820 
	C154.976944,94.362000 153.374069,99.328484 151.609711,104.669678 
z"/>
<path fill="#FF9728" opacity="1.000000" stroke="none" 
	d="
M404.637604,110.384560 
	C401.182800,106.572357 397.962738,103.026001 394.204163,98.886543 
	C396.058502,97.378555 397.708527,96.036705 400.092529,94.097992 
	C405.555206,100.168404 411.121826,106.354332 417.028015,112.917618 
	C414.839752,114.794601 413.141693,116.251122 411.067627,118.030167 
	C408.872314,115.415138 406.872314,113.032768 404.637604,110.384560 
z"/>
<path fill="#FF9829" opacity="1.000000" stroke="none" 
	d="
M259.811462,30.205107 
	C266.472290,30.931257 272.680023,31.625484 279.356842,32.372173 
	C279.070526,35.121296 278.839111,37.343571 278.577515,39.855698 
	C270.158722,39.010490 262.167908,38.208252 253.986313,37.386860 
	C253.986313,35.032101 253.986313,32.918926 253.986313,30.173185 
	C255.883453,30.173185 257.620880,30.173185 259.811462,30.205107 
z"/>
<path fill="#FF992B" opacity="1.000000" stroke="none" 
	d="
M312.096436,43.220577 
	C311.581421,44.805206 311.158783,46.038372 310.615021,47.625019 
	C305.865295,46.356129 301.065063,45.615814 296.849823,43.632332 
	C295.505768,42.999897 295.714691,39.066978 294.947693,35.362740 
	C301.343475,37.175976 305.946075,38.349751 310.431000,39.870407 
	C311.260498,40.151657 311.615051,41.833637 312.096436,43.220577 
z"/>
<path fill="#FF9829" opacity="1.000000" stroke="none" 
	d="
M382.056213,87.963562 
	C379.897278,86.135933 378.020569,84.525299 375.860626,82.671600 
	C377.408813,80.718338 378.809601,78.951050 380.599243,76.693169 
	C384.964844,80.439766 389.149017,84.030670 393.691193,87.928818 
	C391.805237,89.993492 390.289825,91.652512 388.592682,93.510475 
	C386.340454,91.591103 384.339447,89.885826 382.056213,87.963562 
z"/>
<path fill="#FF9828" opacity="1.000000" stroke="none" 
	d="
M334.685760,54.774498 
	C333.202881,55.271332 331.760376,55.867268 330.677277,55.473785 
	C326.672394,54.018856 322.786224,52.237148 318.359741,50.369061 
	C319.147217,48.190586 319.898376,46.112591 320.901581,43.337299 
	C326.200409,45.461380 331.156097,47.447914 336.719299,49.677967 
	C336.014435,51.506016 335.452759,52.962742 334.685760,54.774498 
z"/>
<path fill="#FF9828" opacity="1.000000" stroke="none" 
	d="
M432.101105,144.008041 
	C430.476746,143.811600 428.606506,143.852127 428.007416,142.999512 
	C425.444336,139.351715 423.256134,135.440521 420.712128,131.265778 
	C422.701447,129.942001 424.575592,128.694855 426.990753,127.087708 
	C430.015411,131.962662 432.863831,136.553604 435.884277,141.421783 
	C434.537598,142.365005 433.488831,143.099548 432.101105,144.008041 
z"/>
<path fill="#FF9A2C" opacity="1.000000" stroke="none" 
	d="
M349.645752,65.132515 
	C350.016052,62.606552 350.714508,60.283298 351.582397,57.396587 
	C354.630920,59.193462 356.837311,60.493946 359.455658,62.037254 
	C358.157043,64.303581 357.049500,66.236473 355.677856,68.630211 
	C353.586365,67.422012 351.780121,66.378616 349.645752,65.132515 
z"/>
<path fill="#FF9A2C" opacity="1.000000" stroke="none" 
	d="
M365.854889,67.930756 
	C368.545959,68.751045 371.011047,69.852272 374.005554,71.190025 
	C372.146698,73.846817 370.881500,75.655113 369.395905,77.778435 
	C366.922882,76.062584 364.830261,74.610672 362.453278,72.961456 
	C363.671265,71.139679 364.650085,69.675682 365.854889,67.930756 
z"/>
<path fill="#FFFDFB" opacity="1.000000" stroke="none" 
	d="
M281.699890,456.859741 
	C251.486267,461.876556 221.964874,460.862122 192.678253,453.262848 
	C189.646133,452.476074 188.576706,451.313110 188.720078,448.248535 
	C188.944611,443.449371 188.779617,438.631989 188.779617,433.484253 
	C226.541046,433.484253 263.924225,433.484253 302.036346,433.484253 
	C302.036346,439.055115 302.170837,444.648041 301.906464,450.222076 
	C301.861389,451.172974 300.246399,452.567261 299.122223,452.861664 
	C293.499939,454.334045 287.799561,455.508270 281.699890,456.859741 
z"/>
<path fill="#FFFBF6" opacity="1.000000" stroke="none" 
	d="
M178.699219,433.142944 
	C179.804169,433.922791 180.955154,434.670990 180.986755,435.463776 
	C181.164368,439.919006 181.072388,444.384979 181.072388,450.548615 
	C168.218964,445.038696 156.265289,439.914490 144.311600,434.790253 
	C144.458328,434.237427 144.605042,433.684631 144.751755,433.131836 
	C155.910614,433.131836 167.069489,433.131836 178.699219,433.142944 
z"/>
<path fill="#FFFBF6" opacity="1.000000" stroke="none" 
	d="
M310.716492,449.089722 
	C310.278442,443.879913 310.278442,438.785675 310.278442,433.410400 
	C322.238647,433.410400 334.143097,433.410400 347.476746,433.410400 
	C335.163361,440.308105 323.535431,445.587494 310.716492,449.089722 
z"/>
<path fill="#FFFEFD" opacity="1.000000" stroke="none" 
	d="
M174.357025,405.686615 
	C176.527069,404.110016 178.375854,402.753479 180.698517,401.049225 
	C180.698517,409.810608 180.698517,418.101715 180.698517,426.819702 
	C177.981644,426.819702 175.158615,426.819702 171.807449,426.819702 
	C171.807449,420.764496 171.701279,414.846130 171.907654,408.938690 
	C171.943787,407.904510 173.292984,406.916168 174.357025,405.686615 
z"/>
<path fill="#FFFEFD" opacity="1.000000" stroke="none" 
	d="
M314.966461,427.240906 
	C313.178925,427.182861 311.870453,427.124176 310.200378,427.049316 
	C310.200378,418.542755 310.200378,410.163818 310.200378,401.459656 
	C315.571747,404.555298 320.692963,407.440674 319.158630,415.190643 
	C318.589722,418.064117 318.907928,421.154602 319.107208,424.127014 
	C319.302765,427.043976 317.726532,427.453979 314.966461,427.240906 
z"/>
<path fill="#FFFDFB" opacity="1.000000" stroke="none" 
	d="
M292.873962,414.202393 
	C291.345428,406.759674 297.548126,405.106201 301.615540,401.053284 
	C301.615540,409.922119 301.615540,418.186188 301.615540,426.851196 
	C299.021790,426.851196 296.313049,426.851196 292.873993,426.851196 
	C292.873993,422.835693 292.873993,418.753479 292.873962,414.202393 
z"/>
<path fill="#FFFDFB" opacity="1.000000" stroke="none" 
	d="
M188.778351,414.017029 
	C188.778244,409.619751 188.778244,405.716797 188.778244,401.662018 
	C202.127472,406.742767 197.061569,417.601318 198.018661,426.932281 
	C194.830704,426.932281 192.121597,426.932281 188.778442,426.932281 
	C188.778442,422.690765 188.778442,418.601044 188.778351,414.017029 
z"/>
<path fill="#FFFDFA" opacity="1.000000" stroke="none" 
	d="
M322.889526,413.636475 
	C322.949402,412.410126 323.008667,411.607239 323.070770,410.766083 
	C334.098267,414.170898 335.169281,415.797516 333.591553,426.932007 
	C330.267334,426.932007 326.890961,426.932007 322.888916,426.932007 
	C322.888916,422.564636 322.888916,418.312286 322.889526,413.636475 
z"/>
<path fill="#FFFBF8" opacity="1.000000" stroke="none" 
	d="
M161.019073,427.255432 
	C157.949661,427.556061 156.736725,426.797424 156.650574,423.802917 
	C156.405685,415.290161 156.936966,414.451202 167.932281,410.677094 
	C167.932281,413.447296 167.932281,415.973633 167.932281,418.499969 
	C167.932281,421.122864 167.932281,423.745758 167.932281,427.255768 
	C165.596558,427.255768 163.549026,427.255768 161.019073,427.255432 
z"/>
<path fill="#FFF8F0" opacity="1.000000" stroke="none" 
	d="
M280.670197,415.799347 
	C283.415222,414.257721 285.825562,412.890076 288.664429,411.279297 
	C288.664429,416.695801 288.664429,421.561554 288.664429,426.852417 
	C285.064850,426.852417 281.538971,426.852417 277.461304,426.852417 
	C278.129730,423.063904 275.028839,418.616119 280.670197,415.799347 
z"/>
<path fill="#FFFCFA" opacity="1.000000" stroke="none" 
	d="
M201.987839,422.899353 
	C201.987579,418.963501 201.987579,415.504181 201.987579,411.996002 
	C211.947250,414.784363 213.646606,417.043030 212.951843,426.377380 
	C205.820953,428.584625 202.487228,427.671997 201.987839,422.899353 
z"/>
<path fill="#FFF7EF" opacity="1.000000" stroke="none" 
	d="
M141.883987,421.084564 
	C145.477798,419.781738 148.744843,418.729675 152.493347,417.522583 
	C152.493347,420.964294 152.493347,423.815186 152.493347,426.974274 
	C148.883224,426.974274 145.465988,426.974274 141.557236,426.974274 
	C141.557236,425.097931 141.557236,423.216614 141.883987,421.084564 
z"/>
<path fill="#FFFBF8" opacity="1.000000" stroke="none" 
	d="
M338.044006,422.135590 
	C338.103973,420.542175 338.163910,419.403564 338.223938,418.263245 
	C347.655487,418.887390 349.628876,420.467102 348.753265,426.941010 
	C345.433685,426.941010 342.066528,426.941010 338.330902,426.941010 
	C338.231964,425.441071 338.137970,424.015717 338.044006,422.135590 
z"/>
<path fill="#FFF7EF" opacity="1.000000" stroke="none" 
	d="
M264.625488,422.584656 
	C267.637177,421.554321 270.285400,420.679840 273.440857,419.637878 
	C273.440857,422.273438 273.440857,424.440887 273.440857,427.272064 
	C270.595490,427.272064 267.819214,427.399994 265.066711,427.200409 
	C264.144012,427.133514 263.281830,426.231628 262.391998,425.711426 
	C263.015320,424.721100 263.638672,423.730804 264.625488,422.584656 
z"/>
<path fill="#FFFBF6" opacity="1.000000" stroke="none" 
	d="
M226.673431,427.176880 
	C223.420593,427.235016 220.626373,427.235016 217.449249,427.235016 
	C217.449249,424.744720 217.449249,422.529816 217.449249,419.781281 
	C220.461395,420.756775 223.401855,421.618439 226.274445,422.666168 
	C228.872314,423.613617 228.898148,425.238007 226.673431,427.176880 
z"/>
<path fill="#FFEFDF" opacity="1.000000" stroke="none" 
	d="
M137.765564,424.796387 
	C135.410797,428.678375 133.414398,428.443176 128.605011,423.685425 
	C131.621124,425.079468 134.889252,418.866302 137.765564,424.796387 
z"/>
<path fill="#FFEFDF" opacity="1.000000" stroke="none" 
	d="
M251.177231,425.067627 
	C253.826004,424.800049 256.062653,424.553864 258.348846,424.302216 
	C257.946533,427.929749 254.367828,428.658600 247.263229,425.905060 
	C248.430527,425.633057 249.597824,425.361023 251.177231,425.067627 
z"/>
<path fill="#FFF5EA" opacity="1.000000" stroke="none" 
	d="
M354.196411,427.099854 
	C353.545471,425.468933 353.298798,423.961334 352.965240,421.922852 
	C356.333435,422.547211 359.002258,423.041901 361.671082,423.536621 
	C361.801910,424.041199 361.932709,424.545807 362.063538,425.050385 
	C359.575897,425.774658 357.088287,426.498932 354.196411,427.099854 
z"/>
<path fill="#FFF2E4" opacity="1.000000" stroke="none" 
	d="
M241.636276,425.238647 
	C242.198807,425.411804 242.330902,425.509552 242.462982,425.607269 
	C239.923798,426.171021 237.404541,426.938568 234.834793,427.189819 
	C233.915695,427.279694 232.874542,426.121429 231.889099,425.532867 
	C232.103439,425.156799 232.317780,424.780762 232.532120,424.404724 
	C235.423355,424.657562 238.314590,424.910400 241.636276,425.238647 
z"/>
</svg>