<?xml version="1.0" encoding="UTF-8"?>
<svg id="UVIC" xmlns="http://www.w3.org/2000/svg" viewBox="0 0 648 252">
  <defs>
    <style>
      .cls-1 {
        fill: #0073bc;
      }

      .cls-2 {
        fill: #fdb813;
      }

      .cls-3 {
        fill: #26a739;
      }
    </style>
  </defs>
  <g id="University_of_Victoria" data-name="University of Victoria">
    <g>
      <path class="cls-1" d="M10.07,206.95v22.94c0,8.68,4.01,12.36,9.39,12.36,5.98,0,9.81-3.79,9.81-12.36v-22.94h5.26v22.6c0,11.9-6.52,16.79-15.25,16.79-8.25,0-14.47-4.54-14.47-16.56v-22.83h5.26Z"/>
      <path class="cls-1" d="M44.4,245.7v-38.75h5.68l12.92,19.61c2.99,4.54,5.32,8.62,7.24,12.59l.12-.06c-.48-5.17-.6-9.89-.6-15.93v-16.21h4.9v38.75h-5.26l-12.8-19.66c-2.81-4.31-5.5-8.74-7.53-12.94l-.18.06c.3,4.89.42,9.54.42,15.98v16.56h-4.9Z"/>
      <path class="cls-1" d="M89.78,206.95v38.75h-5.2v-38.75h5.2Z"/>
      <path class="cls-1" d="M108.56,245.7l-13.16-38.75h5.62l6.28,19.09c1.73,5.23,3.23,9.95,4.31,14.49h.12c1.14-4.48,2.81-9.37,4.6-14.43l6.82-19.15h5.56l-14.41,38.75h-5.74Z"/>
      <path class="cls-1" d="M154.79,227.54h-15.67v13.97h17.46v4.2h-22.66v-38.75h21.77v4.2h-16.56v12.25h15.67v4.14Z"/>
      <path class="cls-1" d="M164.17,207.47c2.63-.52,6.4-.8,9.99-.8,5.56,0,9.15.98,11.66,3.16,2.03,1.72,3.17,4.37,3.17,7.36,0,5.12-3.35,8.51-7.59,9.89v.17c3.11,1.04,4.96,3.79,5.92,7.82,1.32,5.4,2.27,9.14,3.11,10.64h-5.38c-.66-1.09-1.55-4.43-2.69-9.26-1.2-5.35-3.35-7.36-8.07-7.53h-4.9v16.79h-5.2v-38.23ZM169.38,225.12h5.32c5.56,0,9.09-2.93,9.09-7.36,0-5-3.77-7.19-9.27-7.25-2.51,0-4.31.23-5.14.46v14.14Z"/>
      <path class="cls-1" d="M196.47,239.61c2.33,1.38,5.74,2.53,9.33,2.53,5.32,0,8.43-2.7,8.43-6.61,0-3.62-2.15-5.69-7.59-7.7-6.58-2.24-10.64-5.52-10.64-10.98,0-6.04,5.2-10.52,13.04-10.52,4.13,0,7.12.92,8.91,1.9l-1.44,4.08c-1.32-.69-4.01-1.84-7.65-1.84-5.5,0-7.59,3.16-7.59,5.81,0,3.62,2.45,5.4,8.01,7.47,6.82,2.53,10.29,5.69,10.29,11.38,0,5.98-4.6,11.15-14.11,11.15-3.89,0-8.13-1.09-10.29-2.47l1.32-4.2Z"/>
      <path class="cls-1" d="M232.7,206.95v38.75h-5.2v-38.75h5.2Z"/>
      <path class="cls-1" d="M250.29,211.21h-12.26v-4.25h29.84v4.25h-12.32v34.5h-5.26v-34.5Z"/>
      <path class="cls-1" d="M283.83,245.7v-16.44l-12.74-22.31h5.92l5.68,10.69c1.55,2.93,2.75,5.29,4.01,7.99h.12c1.14-2.53,2.51-5.06,4.07-7.99l5.8-10.69h5.92l-13.51,22.25v16.5h-5.26Z"/>
      <path class="cls-1" d="M356.01,225.93c0,13.34-8.43,20.41-18.72,20.41s-18.12-7.93-18.12-19.66c0-12.3,7.95-20.35,18.72-20.35s18.12,8.11,18.12,19.61ZM324.73,226.56c0,8.28,4.66,15.7,12.86,15.7s12.92-7.3,12.92-16.1c0-7.7-4.19-15.75-12.86-15.75s-12.92,7.65-12.92,16.16Z"/>
      <path class="cls-1" d="M363.6,206.95h21.71v4.2h-16.5v12.88h15.25v4.14h-15.25v17.54h-5.2v-38.75Z"/>
      <path class="cls-1" d="M413.78,245.7l-13.16-38.75h5.62l6.28,19.09c1.73,5.23,3.23,9.95,4.31,14.49h.12c1.14-4.48,2.81-9.37,4.6-14.43l6.82-19.15h5.56l-14.41,38.75h-5.74Z"/>
      <path class="cls-1" d="M444.33,206.95v38.75h-5.2v-38.75h5.2Z"/>
      <path class="cls-1" d="M482.43,244.44c-1.91.92-5.74,1.84-10.64,1.84-11.36,0-19.91-6.9-19.91-19.61s8.55-20.35,21.05-20.35c5.02,0,8.19,1.04,9.57,1.73l-1.26,4.08c-1.97-.92-4.78-1.61-8.13-1.61-9.45,0-15.73,5.81-15.73,15.98,0,9.49,5.68,15.58,15.49,15.58,3.17,0,6.4-.63,8.49-1.61l1.08,3.97Z"/>
      <path class="cls-1" d="M499.11,211.21h-12.26v-4.25h29.84v4.25h-12.32v34.5h-5.26v-34.5Z"/>
      <path class="cls-1" d="M554.84,225.93c0,13.34-8.43,20.41-18.72,20.41s-18.12-7.93-18.12-19.66c0-12.3,7.95-20.35,18.72-20.35s18.12,8.11,18.12,19.61ZM523.57,226.56c0,8.28,4.66,15.7,12.86,15.7s12.92-7.3,12.92-16.1c0-7.7-4.19-15.75-12.86-15.75s-12.92,7.65-12.92,16.16Z"/>
      <path class="cls-1" d="M562.44,207.47c2.63-.52,6.4-.8,9.99-.8,5.56,0,9.15.98,11.66,3.16,2.03,1.72,3.17,4.37,3.17,7.36,0,5.12-3.35,8.51-7.59,9.89v.17c3.11,1.04,4.96,3.79,5.92,7.82,1.32,5.4,2.27,9.14,3.11,10.64h-5.38c-.66-1.09-1.55-4.43-2.69-9.26-1.2-5.35-3.35-7.36-8.07-7.53h-4.9v16.79h-5.2v-38.23ZM567.64,225.12h5.32c5.56,0,9.09-2.93,9.09-7.36,0-5-3.77-7.19-9.27-7.25-2.51,0-4.31.23-5.14.46v14.14Z"/>
      <path class="cls-1" d="M600.65,206.95v38.75h-5.2v-38.75h5.2Z"/>
      <path class="cls-1" d="M617.09,233.52l-4.19,12.19h-5.38l13.69-38.75h6.28l13.75,38.75h-5.56l-4.31-12.19h-14.29ZM630.31,229.61l-3.95-11.15c-.9-2.53-1.49-4.83-2.09-7.07h-.12c-.6,2.3-1.26,4.66-2.03,7.01l-3.95,11.21h12.14Z"/>
    </g>
  </g>
  <path class="cls-1" d="M592.56,112.92c-6.71,12.03-15.27,20.36-30.53,20.36-17.81,0-30.3-14.8-30.3-35.85v-.46c0-19.43,12.03-35.39,30.3-35.39,14.8,0,23.36,8.1,29.38,19.66l51.07-29.82c-14.84-26.9-40.98-45.76-79.71-45.76-52.55,0-93.53,39.22-93.53,91.77v.5c0,54.56,42.49,91.27,91.27,91.27,43.75,0,68.39-21.37,83.23-47.52l-51.17-28.75Z"/>
  <rect class="cls-1" x="398.37" y="5.99" width="59.96" height="183.37"/>
  <polygon class="cls-2" points="260.61 189.13 319.37 189.13 289.91 109.46 260.61 189.13"/>
  <polygon class="cls-3" points="289.91 109.46 319.37 189.13 392.73 5.84 326.25 5.84 289.91 109.46"/>
  <polygon class="cls-1" points="254.29 5.83 187.16 5.83 260.61 189.13 289.91 109.46 254.29 5.83"/>
  <path class="cls-1" d="M120.6,105.41c0,21.78-11.53,30.49-27.67,30.49s-27.67-9.48-27.67-31.77V5.99H4.27v98.91c0,59.45,34.59,84.05,88.15,84.05s89.17-24.09,89.17-85.33V5.99h-60.98v99.42Z"/>
</svg>