<?xml version="1.0" encoding="utf-8"?>
<!-- Generator: Adobe Illustrator 19.2.1, SVG Export Plug-In . SVG Version: 6.00 Build 0)  -->
<svg version="1.1" id="layer" xmlns="http://www.w3.org/2000/svg" xmlns:xlink="http://www.w3.org/1999/xlink" x="0px" y="0px"
	 viewBox="0 0 652 652" style="enable-background:new 0 0 652 652;" xml:space="preserve">
<style type="text/css">
	.st0{fill:#1E293B;}
</style>
<path class="st0" d="M81.8,458.7h31.8l25.6,78.6l25.4-78.6h28.7l-38.9,109.9h-33.4L81.8,458.7z M230.1,458.7h-29.5v109.9h29.5V458.7
	z M239.3,534.1H267c1.2,9.9,5.9,15.6,18.8,15.6c11.5,0,16.8-4.4,16.8-12s-6.3-10.7-21.7-13c-28.5-4.4-39.6-12.8-39.6-34.2
	c0-22.9,20.5-34.2,42.4-34.2c23.8,0,41.6,8.8,44.3,34h-27.2c-1.7-9-6.6-13.2-16.8-13.2c-10.2,0-15.2,4.6-15.2,11.4
	c0,6.8,5.1,9.6,20.7,12c26.8,4,41.6,10.9,41.6,34.4c0,23.5-16.8,36-45.1,36c-28.3,0-45.7-13-46.7-36.8 M370,458.7h-29.5v109.9H370
	V458.7z M380.4,515v-1.7c0-34.6,24-57.1,55.1-57.1c27.7,0,52.2,16.6,52.2,56v8.4h-77.2c0.8,18.3,10.5,28.8,26.6,28.8
	c13.7,0,20.5-6.1,22.3-15.3h28.1c-3.5,23.8-21.9,37-51.2,37C403.9,571,380.4,550.2,380.4,515L380.4,515z M458.8,501.8
	c-1-16.6-9.2-24.6-23.4-24.6c-13.3,0-22.3,9-24.5,24.6H458.8z M496.9,458.7h29.7v21c6.8-14.7,17.2-22.5,34.6-22.7v28.4
	c-21.9,0-34.6,7.2-34.6,28v55.2h-29.7V458.7z"/>
<path class="st0" d="M537.9,556.7c0-2.3,0.8-4.6,2.1-6.5c1.3-1.9,3.1-3.4,5.3-4.2c2.1-0.9,4.5-1.1,6.7-0.6c2.2,0.5,4.3,1.6,5.9,3.3
	c1.6,1.7,2.7,3.7,3.1,6c0.4,2.3,0.2,4.6-0.7,6.8c-0.9,2.1-2.4,4-4.3,5.2c-1.9,1.3-4.2,2-6.4,2c-1.5,0-3.1-0.3-4.5-0.9
	c-1.4-0.6-2.7-1.5-3.8-2.6c-1.1-1.1-1.9-2.4-2.5-3.9C538.1,559.9,537.9,558.3,537.9,556.7z M559.6,556.7c0.1-1.4-0.1-2.7-0.6-4
	c-0.5-1.3-1.2-2.4-2.1-3.4c-0.9-1-2.1-1.8-3.3-2.3c-1.2-0.5-2.6-0.8-3.9-0.8c-1.4,0-2.7,0.3-3.9,0.8c-1.2,0.5-2.4,1.3-3.3,2.3
	c-0.9,1-1.7,2.1-2.1,3.4c-0.5,1.3-0.7,2.6-0.6,4c0,2.7,1.1,5.3,2.9,7.2c1.9,1.9,4.4,3,7.1,3c2.7,0,5.2-1.1,7.1-3
	C558.5,562.1,559.6,559.5,559.6,556.7L559.6,556.7z M545.7,550.5h4c2.6,0,4.4,1.2,4.4,3.6c0.1,0.8-0.2,1.6-0.7,2.2
	c-0.5,0.6-1.2,1-2,1.1l3.4,5.4h-2.2l-3.2-5h-1.7v5h-1.9L545.7,550.5z M549.6,556.3c1.7,0,2.5-0.7,2.5-2c0-1.5-0.9-2.1-2.5-2.1h-1.9
	v4L549.6,556.3z"/>
<path class="st0" d="M161.5,115.1c12.3,0,22.3-9.9,22.3-22.1c0-12.2-10-22.1-22.3-22.1c-12.3,0-22.3,9.9-22.3,22.1
	C139.2,105.3,149.2,115.1,161.5,115.1z M213.2,203.5c-3.9,0-7.7-1-11-2.9c-3.3-1.9-6.1-4.7-8.1-8c-1.9-3.3-2.9-7.1-2.9-10.9
	s1-7.6,2.9-10.9l51.6-88.4c1.4-2.5,3.4-4.6,5.7-6.4c2.3-1.7,4.9-3,7.7-3.8c2.8-0.7,5.7-0.9,8.6-0.6c2.9,0.4,5.6,1.3,8.1,2.7
	c2.5,1.4,4.7,3.3,6.5,5.6c1.8,2.3,3.1,4.9,3.8,7.6c0.7,2.8,0.9,5.6,0.6,8.5c-0.4,2.8-1.3,5.6-2.8,8l-51.6,88.4
	c-1.9,3.3-4.7,6.1-8.1,8S217.1,203.5,213.2,203.5z M265.3,292.8c-3.9,0-7.7-1-11-2.9c-3.3-1.9-6.1-4.7-8.1-8
	c-1.9-3.3-2.9-7.1-2.9-10.9c0-3.8,1-7.6,2.9-10.9l16.6-28.4c2.9-5,7.7-8.7,13.4-10.2c5.6-1.5,11.7-0.7,16.7,2.2
	c5.1,2.9,8.8,7.6,10.3,13.2c1.5,5.6,0.7,11.5-2.2,16.5l-16.6,28.4c-1.9,3.3-4.7,6.1-8.1,8C273,291.8,269.2,292.8,265.3,292.8z
	 M325.9,189.1c-3.9,0-7.7-1-11-2.9c-3.3-1.9-6.1-4.7-8.1-8c-1.9-3.3-2.9-7.1-2.9-10.9s1-7.6,2.9-10.9l43.1-73.8
	c2.9-5,7.7-8.7,13.4-10.2c5.6-1.5,11.7-0.7,16.7,2.2c5.1,2.9,8.8,7.6,10.3,13.2c1.5,5.6,0.7,11.5-2.2,16.5L345,178.2
	c-1.9,3.3-4.7,6.1-8.1,8C333.6,188.1,329.8,189.1,325.9,189.1z M317.6,382.4c-3.9,0-7.7-1-11-2.9c-3.3-1.9-6.1-4.7-8.1-8
	c-1.9-3.3-2.9-7.1-2.9-10.9c0-3.8,1-7.6,2.9-10.9l84.6-145c2.9-5,7.7-8.7,13.4-10.2c5.6-1.5,11.7-0.7,16.7,2.2
	c5.1,2.9,8.8,7.6,10.3,13.2c1.5,5.6,0.7,11.5-2.2,16.5l-84.6,145c-1.9,3.3-4.7,6.1-8.1,8C325.3,381.4,321.5,382.4,317.6,382.4z
	 M446.3,162c-3.9,0-7.7-1-11-2.9c-3.3-1.9-6.1-4.7-8.1-8c-1.9-3.3-2.9-7.1-2.9-10.9c0-3.8,1-7.6,2.9-10.9l27.3-46.8
	c2.9-5,7.7-8.7,13.4-10.2c5.6-1.5,11.7-0.7,16.7,2.2c5.1,2.9,8.8,7.6,10.3,13.2c1.5,5.6,0.7,11.5-2.2,16.5l-27.3,46.8
	c-1.9,3.3-4.7,6.1-8.1,8C453.9,161,450.1,162,446.3,162z"/>
</svg>
